M48
; DRILL file {KiCad (6.0.0-0)} date 2022 January 19, Wednesday 21:25:43
; FORMAT={-:-/ absolute / inch / decimal}
; #@! TF.CreationDate,2022-01-19T21:25:43+01:00
; #@! TF.GenerationSoftware,Kicad,Pcbnew,(6.0.0-0)
; #@! TF.FileFunction,NonPlated,1,2,NPTH
FMAT,2
INCH
; #@! TA.AperFunction,NonPlated,NPTH,ComponentDrill
T1C0.0669
; #@! TA.AperFunction,NonPlated,NPTH,ComponentDrill
T2C0.0670
; #@! TA.AperFunction,NonPlated,NPTH,ComponentDrill
T3C0.0689
; #@! TA.AperFunction,NonPlated,NPTH,ComponentDrill
T4C0.0866
; #@! TA.AperFunction,NonPlated,NPTH,ComponentDrill
T5C0.1200
; #@! TA.AperFunction,NonPlated,NPTH,ComponentDrill
T6C0.1570
%
G90
G05
T1
X0.5335Y-2.5312
X0.5335Y-2.5312
X0.5335Y-3.2813
X0.5335Y-3.2813
X0.5335Y-4.0313
X0.5335Y-4.0313
X0.5335Y-4.7813
X0.5335Y-4.7813
X0.5335Y-5.5313
X0.5335Y-5.5313
X0.9665Y-2.5312
X0.9665Y-2.5312
X0.9665Y-3.2813
X0.9665Y-3.2813
X0.9665Y-4.0313
X0.9665Y-4.0313
X0.9665Y-4.7813
X0.9665Y-4.7813
X0.9665Y-5.5313
X0.9665Y-5.5313
X1.2835Y-2.5313
X1.2835Y-2.5313
X1.2835Y-3.2813
X1.2835Y-3.2813
X1.2835Y-4.0313
X1.2835Y-4.0313
X1.2835Y-4.7813
X1.2835Y-4.7813
X1.2835Y-5.5313
X1.2835Y-5.5313
X1.7165Y-2.5313
X1.7165Y-2.5313
X1.7165Y-3.2813
X1.7165Y-3.2813
X1.7165Y-4.0313
X1.7165Y-4.0313
X1.7165Y-4.7813
X1.7165Y-4.7813
X1.7165Y-5.5313
X1.7165Y-5.5313
X2.0335Y-2.5313
X2.0335Y-2.5313
X2.0335Y-3.2813
X2.0335Y-3.2813
X2.0335Y-4.0313
X2.0335Y-4.0313
X2.0335Y-4.7813
X2.0335Y-4.7813
X2.0335Y-5.5313
X2.0335Y-5.5313
X2.4665Y-2.5313
X2.4665Y-2.5313
X2.4665Y-3.2813
X2.4665Y-3.2813
X2.4665Y-4.0313
X2.4665Y-4.0313
X2.4665Y-4.7813
X2.4665Y-4.7813
X2.4665Y-5.5313
X2.4665Y-5.5313
X2.7835Y-2.5313
X2.7835Y-2.5313
X2.7835Y-3.2813
X2.7835Y-3.2813
X2.7835Y-4.0313
X2.7835Y-4.0313
X2.7835Y-4.7813
X2.7835Y-4.7813
X2.7835Y-5.5313
X2.7835Y-5.5313
X3.2165Y-2.5313
X3.2165Y-2.5313
X3.2165Y-3.2813
X3.2165Y-3.2813
X3.2165Y-4.0313
X3.2165Y-4.0313
X3.2165Y-4.7813
X3.2165Y-4.7813
X3.2165Y-5.5313
X3.2165Y-5.5313
X3.5335Y-2.5313
X3.5335Y-2.5313
X3.5335Y-3.2813
X3.5335Y-3.2813
X3.5335Y-4.0313
X3.5335Y-4.0313
X3.5335Y-4.7813
X3.5335Y-4.7813
X3.5335Y-5.5313
X3.5335Y-5.5313
X3.9665Y-2.5313
X3.9665Y-2.5313
X3.9665Y-3.2813
X3.9665Y-3.2813
X3.9665Y-4.0313
X3.9665Y-4.0313
X3.9665Y-4.7813
X3.9665Y-4.7813
X3.9665Y-5.5313
X3.9665Y-5.5313
X4.2835Y-2.5313
X4.2835Y-2.5313
X4.2835Y-3.2813
X4.2835Y-3.2813
X4.2835Y-4.0313
X4.2835Y-4.0313
X4.2835Y-4.7813
X4.2835Y-4.7813
X4.2835Y-5.5313
X4.2835Y-5.5313
X4.7165Y-2.5313
X4.7165Y-2.5313
X4.7165Y-3.2813
X4.7165Y-3.2813
X4.7165Y-4.0313
X4.7165Y-4.0313
X4.7165Y-4.7813
X4.7165Y-4.7813
X4.7165Y-5.5313
X4.7165Y-5.5313
X7.2835Y-2.5313
X7.2835Y-2.5313
X7.2835Y-3.2813
X7.2835Y-3.2813
X7.2835Y-4.0313
X7.2835Y-4.0313
X7.2835Y-4.7813
X7.2835Y-4.7813
X7.2835Y-5.5313
X7.2835Y-5.5313
X7.7165Y-2.5313
X7.7165Y-2.5313
X7.7165Y-3.2813
X7.7165Y-3.2813
X7.7165Y-4.0313
X7.7165Y-4.0313
X7.7165Y-4.7813
X7.7165Y-4.7813
X7.7165Y-5.5313
X7.7165Y-5.5313
X8.0335Y-2.5313
X8.0335Y-2.5313
X8.0335Y-3.2813
X8.0335Y-3.2813
X8.0335Y-4.0313
X8.0335Y-4.0313
X8.0335Y-4.7813
X8.0335Y-4.7813
X8.0335Y-5.5313
X8.0335Y-5.5313
X8.4665Y-2.5313
X8.4665Y-2.5313
X8.4665Y-3.2813
X8.4665Y-3.2813
X8.4665Y-4.0313
X8.4665Y-4.0313
X8.4665Y-4.7813
X8.4665Y-4.7813
X8.4665Y-5.5313
X8.4665Y-5.5313
X8.7835Y-2.5313
X8.7835Y-2.5313
X8.7835Y-3.2813
X8.7835Y-3.2813
X8.7835Y-4.0313
X8.7835Y-4.0313
X8.7835Y-4.7813
X8.7835Y-4.7813
X8.7835Y-5.5313
X8.7835Y-5.5313
X9.2165Y-2.5313
X9.2165Y-2.5313
X9.2165Y-3.2813
X9.2165Y-3.2813
X9.2165Y-4.0313
X9.2165Y-4.0313
X9.2165Y-4.7813
X9.2165Y-4.7813
X9.2165Y-5.5313
X9.2165Y-5.5313
X9.5335Y-2.5313
X9.5335Y-2.5313
X9.5335Y-3.2813
X9.5335Y-3.2813
X9.5335Y-4.0313
X9.5335Y-4.0313
X9.5335Y-4.7813
X9.5335Y-4.7813
X9.5335Y-5.5313
X9.5335Y-5.5313
X9.9665Y-2.5313
X9.9665Y-2.5313
X9.9665Y-3.2813
X9.9665Y-3.2813
X9.9665Y-4.0313
X9.9665Y-4.0313
X9.9665Y-4.7813
X9.9665Y-4.7813
X9.9665Y-5.5313
X9.9665Y-5.5313
X10.2835Y-2.5313
X10.2835Y-2.5313
X10.2835Y-3.2813
X10.2835Y-3.2813
X10.2835Y-4.0313
X10.2835Y-4.0313
X10.2835Y-4.7813
X10.2835Y-4.7813
X10.2835Y-5.5313
X10.2835Y-5.5313
X10.7165Y-2.5313
X10.7165Y-2.5313
X10.7165Y-3.2813
X10.7165Y-3.2813
X10.7165Y-4.0313
X10.7165Y-4.0313
X10.7165Y-4.7813
X10.7165Y-4.7813
X10.7165Y-5.5313
X10.7165Y-5.5313
X11.0335Y-2.5313
X11.0335Y-2.5313
X11.0335Y-3.2813
X11.0335Y-3.2813
X11.0335Y-4.0313
X11.0335Y-4.0313
X11.0335Y-4.7813
X11.0335Y-4.7813
X11.0335Y-5.5313
X11.0335Y-5.5313
X11.4665Y-2.5313
X11.4665Y-2.5313
X11.4665Y-3.2813
X11.4665Y-3.2813
X11.4665Y-4.0313
X11.4665Y-4.0313
X11.4665Y-4.7813
X11.4665Y-4.7813
X11.4665Y-5.5313
X11.4665Y-5.5313
T2
X3.925Y-5.5313
X4.325Y-5.5313
X7.675Y-5.5313
X8.075Y-5.5313
T3
X0.55Y-2.5312
X0.55Y-2.5312
X0.55Y-3.2813
X0.55Y-3.2813
X0.55Y-4.0313
X0.55Y-4.0313
X0.55Y-4.7813
X0.55Y-4.7813
X0.55Y-5.5313
X0.55Y-5.5313
X0.95Y-2.5312
X0.95Y-2.5312
X0.95Y-3.2813
X0.95Y-3.2813
X0.95Y-4.0313
X0.95Y-4.0313
X0.95Y-4.7813
X0.95Y-4.7813
X0.95Y-5.5313
X0.95Y-5.5313
X1.3Y-2.5313
X1.3Y-2.5313
X1.3Y-3.2813
X1.3Y-3.2813
X1.3Y-4.0313
X1.3Y-4.0313
X1.3Y-4.7813
X1.3Y-4.7813
X1.3Y-5.5313
X1.3Y-5.5313
X1.7Y-2.5313
X1.7Y-2.5313
X1.7Y-3.2813
X1.7Y-3.2813
X1.7Y-4.0313
X1.7Y-4.0313
X1.7Y-4.7813
X1.7Y-4.7813
X1.7Y-5.5313
X1.7Y-5.5313
X2.05Y-2.5313
X2.05Y-2.5313
X2.05Y-3.2813
X2.05Y-3.2813
X2.05Y-4.0313
X2.05Y-4.0313
X2.05Y-4.7813
X2.05Y-4.7813
X2.05Y-5.5313
X2.05Y-5.5313
X2.45Y-2.5313
X2.45Y-2.5313
X2.45Y-3.2813
X2.45Y-3.2813
X2.45Y-4.0313
X2.45Y-4.0313
X2.45Y-4.7813
X2.45Y-4.7813
X2.45Y-5.5313
X2.45Y-5.5313
X2.8Y-2.5313
X2.8Y-2.5313
X2.8Y-3.2813
X2.8Y-3.2813
X2.8Y-4.0313
X2.8Y-4.0313
X2.8Y-4.7813
X2.8Y-4.7813
X2.8Y-5.5313
X2.8Y-5.5313
X3.2Y-2.5313
X3.2Y-2.5313
X3.2Y-3.2813
X3.2Y-3.2813
X3.2Y-4.0313
X3.2Y-4.0313
X3.2Y-4.7813
X3.2Y-4.7813
X3.2Y-5.5313
X3.2Y-5.5313
X3.55Y-2.5313
X3.55Y-2.5313
X3.55Y-3.2813
X3.55Y-3.2813
X3.55Y-4.0313
X3.55Y-4.0313
X3.55Y-4.7813
X3.55Y-4.7813
X3.55Y-5.5313
X3.55Y-5.5313
X3.95Y-2.5313
X3.95Y-2.5313
X3.95Y-3.2813
X3.95Y-3.2813
X3.95Y-4.0313
X3.95Y-4.0313
X3.95Y-4.7813
X3.95Y-4.7813
X3.95Y-5.5313
X3.95Y-5.5313
X4.3Y-2.5313
X4.3Y-2.5313
X4.3Y-3.2813
X4.3Y-3.2813
X4.3Y-4.0313
X4.3Y-4.0313
X4.3Y-4.7813
X4.3Y-4.7813
X4.3Y-5.5313
X4.3Y-5.5313
X4.7Y-2.5313
X4.7Y-2.5313
X4.7Y-3.2813
X4.7Y-3.2813
X4.7Y-4.0313
X4.7Y-4.0313
X4.7Y-4.7813
X4.7Y-4.7813
X4.7Y-5.5313
X4.7Y-5.5313
X7.3Y-2.5313
X7.3Y-2.5313
X7.3Y-3.2813
X7.3Y-3.2813
X7.3Y-4.0313
X7.3Y-4.0313
X7.3Y-4.7813
X7.3Y-4.7813
X7.3Y-5.5313
X7.3Y-5.5313
X7.7Y-2.5313
X7.7Y-2.5313
X7.7Y-3.2813
X7.7Y-3.2813
X7.7Y-4.0313
X7.7Y-4.0313
X7.7Y-4.7813
X7.7Y-4.7813
X7.7Y-5.5313
X7.7Y-5.5313
X8.05Y-2.5313
X8.05Y-2.5313
X8.05Y-3.2813
X8.05Y-3.2813
X8.05Y-4.0313
X8.05Y-4.0313
X8.05Y-4.7813
X8.05Y-4.7813
X8.05Y-5.5313
X8.05Y-5.5313
X8.45Y-2.5313
X8.45Y-2.5313
X8.45Y-3.2813
X8.45Y-3.2813
X8.45Y-4.0313
X8.45Y-4.0313
X8.45Y-4.7813
X8.45Y-4.7813
X8.45Y-5.5313
X8.45Y-5.5313
X8.8Y-2.5313
X8.8Y-2.5313
X8.8Y-3.2813
X8.8Y-3.2813
X8.8Y-4.0313
X8.8Y-4.0313
X8.8Y-4.7813
X8.8Y-4.7813
X8.8Y-5.5313
X8.8Y-5.5313
X9.2Y-2.5313
X9.2Y-2.5313
X9.2Y-3.2813
X9.2Y-3.2813
X9.2Y-4.0313
X9.2Y-4.0313
X9.2Y-4.7813
X9.2Y-4.7813
X9.2Y-5.5313
X9.2Y-5.5313
X9.55Y-2.5313
X9.55Y-2.5313
X9.55Y-3.2813
X9.55Y-3.2813
X9.55Y-4.0313
X9.55Y-4.0313
X9.55Y-4.7813
X9.55Y-4.7813
X9.55Y-5.5313
X9.55Y-5.5313
X9.95Y-2.5313
X9.95Y-2.5313
X9.95Y-3.2813
X9.95Y-3.2813
X9.95Y-4.0313
X9.95Y-4.0313
X9.95Y-4.7813
X9.95Y-4.7813
X9.95Y-5.5313
X9.95Y-5.5313
X10.3Y-2.5313
X10.3Y-2.5313
X10.3Y-3.2813
X10.3Y-3.2813
X10.3Y-4.0313
X10.3Y-4.0313
X10.3Y-4.7813
X10.3Y-4.7813
X10.3Y-5.5313
X10.3Y-5.5313
X10.7Y-2.5313
X10.7Y-2.5313
X10.7Y-3.2813
X10.7Y-3.2813
X10.7Y-4.0313
X10.7Y-4.0313
X10.7Y-4.7813
X10.7Y-4.7813
X10.7Y-5.5313
X10.7Y-5.5313
X11.05Y-2.5313
X11.05Y-2.5313
X11.05Y-3.2813
X11.05Y-3.2813
X11.05Y-4.0313
X11.05Y-4.0313
X11.05Y-4.7813
X11.05Y-4.7813
X11.05Y-5.5313
X11.05Y-5.5313
X11.45Y-2.5313
X11.45Y-2.5313
X11.45Y-3.2813
X11.45Y-3.2813
X11.45Y-4.0313
X11.45Y-4.0313
X11.45Y-4.7813
X11.45Y-4.7813
X11.45Y-5.5313
X11.45Y-5.5313
T4
X5.0625Y-2.3438
X5.0625Y-5.6953
X6.9375Y-2.3438
X6.9375Y-5.6953
T5
X3.655Y-5.8063
X4.595Y-5.8063
X7.405Y-5.8063
X8.345Y-5.8063
T6
X0.75Y-2.5312
X0.75Y-2.5312
X0.75Y-3.2813
X0.75Y-3.2813
X0.75Y-4.0313
X0.75Y-4.0313
X0.75Y-4.7813
X0.75Y-4.7813
X0.75Y-5.5313
X0.75Y-5.5313
X1.5Y-2.5313
X1.5Y-2.5313
X1.5Y-3.2813
X1.5Y-3.2813
X1.5Y-4.0313
X1.5Y-4.0313
X1.5Y-4.7813
X1.5Y-4.7813
X1.5Y-5.5313
X1.5Y-5.5313
X2.25Y-2.5313
X2.25Y-2.5313
X2.25Y-3.2813
X2.25Y-3.2813
X2.25Y-4.0313
X2.25Y-4.0313
X2.25Y-4.7813
X2.25Y-4.7813
X2.25Y-5.5313
X2.25Y-5.5313
X3.0Y-2.5313
X3.0Y-2.5313
X3.0Y-3.2813
X3.0Y-3.2813
X3.0Y-4.0313
X3.0Y-4.0313
X3.0Y-4.7813
X3.0Y-4.7813
X3.0Y-5.5313
X3.0Y-5.5313
X3.655Y-5.2063
X3.75Y-2.5313
X3.75Y-2.5313
X3.75Y-3.2813
X3.75Y-3.2813
X3.75Y-4.0313
X3.75Y-4.0313
X3.75Y-4.7813
X3.75Y-4.7813
X3.75Y-5.5313
X3.75Y-5.5313
X4.125Y-5.5313
X4.5Y-2.5313
X4.5Y-2.5313
X4.5Y-3.2813
X4.5Y-3.2813
X4.5Y-4.0313
X4.5Y-4.0313
X4.5Y-4.7813
X4.5Y-4.7813
X4.5Y-5.5313
X4.5Y-5.5313
X4.595Y-5.2063
X7.405Y-5.2063
X7.5Y-2.5313
X7.5Y-2.5313
X7.5Y-3.2813
X7.5Y-3.2813
X7.5Y-4.0313
X7.5Y-4.0313
X7.5Y-4.7813
X7.5Y-4.7813
X7.5Y-5.5313
X7.5Y-5.5313
X7.875Y-5.5313
X8.25Y-2.5313
X8.25Y-2.5313
X8.25Y-3.2813
X8.25Y-3.2813
X8.25Y-4.0313
X8.25Y-4.0313
X8.25Y-4.7813
X8.25Y-4.7813
X8.25Y-5.5313
X8.25Y-5.5313
X8.345Y-5.2063
X9.0Y-2.5313
X9.0Y-2.5313
X9.0Y-3.2813
X9.0Y-3.2813
X9.0Y-4.0313
X9.0Y-4.0313
X9.0Y-4.7813
X9.0Y-4.7813
X9.0Y-5.5313
X9.0Y-5.5313
X9.75Y-2.5313
X9.75Y-2.5313
X9.75Y-3.2813
X9.75Y-3.2813
X9.75Y-4.0313
X9.75Y-4.0313
X9.75Y-4.7813
X9.75Y-4.7813
X9.75Y-5.5313
X9.75Y-5.5313
X10.5Y-2.5313
X10.5Y-2.5313
X10.5Y-3.2813
X10.5Y-3.2813
X10.5Y-4.0313
X10.5Y-4.0313
X10.5Y-4.7813
X10.5Y-4.7813
X10.5Y-5.5313
X10.5Y-5.5313
X11.25Y-2.5313
X11.25Y-2.5313
X11.25Y-3.2813
X11.25Y-3.2813
X11.25Y-4.0313
X11.25Y-4.0313
X11.25Y-4.7813
X11.25Y-4.7813
X11.25Y-5.5313
X11.25Y-5.5313
T4
G00X0.3857Y-4.3828
M15
G01X0.6455Y-4.3828
M16
G05
G00X5.4375Y-4.0706
M15
G01X5.4375Y-3.9919
M16
G05
G00X11.3545Y-4.3828
M15
G01X11.6143Y-4.3828
M16
G05
T0
M30
