M48
; DRILL file {KiCad (6.0.0-0)} date 2022 February 06, Sunday 10:56:17
; FORMAT={-:-/ absolute / inch / decimal}
; #@! TF.CreationDate,2022-02-06T10:56:17+01:00
; #@! TF.GenerationSoftware,Kicad,Pcbnew,(6.0.0-0)
; #@! TF.FileFunction,Plated,1,2,PTH
FMAT,2
INCH
; #@! TA.AperFunction,Plated,PTH,ComponentDrill
T1C0.0138
; #@! TA.AperFunction,Plated,PTH,ViaDrill
T2C0.0157
; #@! TA.AperFunction,Plated,PTH,ComponentDrill
T3C0.0157
; #@! TA.AperFunction,Plated,PTH,ComponentDrill
T4C0.0236
; #@! TA.AperFunction,Plated,PTH,ComponentDrill
T5C0.0276
; #@! TA.AperFunction,Plated,PTH,ComponentDrill
T6C0.0280
; #@! TA.AperFunction,Plated,PTH,ComponentDrill
T7C0.0290
; #@! TA.AperFunction,Plated,PTH,ComponentDrill
T8C0.0315
; #@! TA.AperFunction,Plated,PTH,ComponentDrill
T9C0.0354
; #@! TA.AperFunction,Plated,PTH,ComponentDrill
T10C0.0394
; #@! TA.AperFunction,Plated,PTH,ComponentDrill
T11C0.0433
; #@! TA.AperFunction,Plated,PTH,ComponentDrill
T12C0.0472
; #@! TA.AperFunction,Plated,PTH,ComponentDrill
T13C0.0579
; #@! TA.AperFunction,Plated,PTH,ComponentDrill
T14C0.0590
%
G90
G05
T2
X0.8625Y-2.4516
X0.9469Y-3.5531
X1.0078Y-2.7797
X1.0919Y-2.6525
X1.2047Y-3.1922
X1.2516Y-2.9531
X1.6031Y-2.6625
X1.875Y-3.2812
X2.0157Y-2.9528
X2.6156Y-3.4688
X2.625Y-4.0594
X3.2795Y-4.9882
X3.3346Y-5.437
X3.3386Y-4.685
X4.8047Y-3.5156
X5.1328Y-4.0313
X6.2344Y-3.1875
X7.1953Y-5.6719
X7.7813Y-4.2656
X9.311Y-4.3465
X10.1063Y-5.0276
T3
X0.9893Y-2.3429
X0.9893Y-2.3961
X1.0228Y-2.3429
X1.0228Y-2.3961
X1.0562Y-2.3429
X1.0562Y-2.3961
X1.0897Y-2.3429
X1.0897Y-2.3961
X1.1231Y-2.3429
X1.1231Y-2.3961
X1.1566Y-2.3429
X1.1566Y-2.3961
X1.1901Y-2.3429
X1.1901Y-2.3961
X1.2235Y-2.3429
X1.2235Y-2.3961
T4
X5.73Y-5.0391
X5.7891Y-5.0391
T5
X0.6094Y-2.9063
X0.9094Y-2.9063
X1.0433Y-2.5061
X1.0748Y-2.4372
X1.1063Y-2.5061
X1.1378Y-2.4372
X1.1693Y-2.5061
X1.3594Y-2.9063
X1.6594Y-2.9063
X5.6063Y-2.2969
X5.9063Y-2.2969
X6.0938Y-2.2969
X6.0938Y-4.1953
X6.0938Y-4.2891
X6.0938Y-4.3828
X6.0938Y-4.4766
X6.3938Y-2.2969
X6.3938Y-4.1953
X6.3938Y-4.2891
X6.3938Y-4.3828
X6.3938Y-4.4766
T6
X5.5313Y-4.4703
X5.5313Y-4.6703
T7
X2.625Y-2.8179
X2.625Y-2.877
X2.625Y-2.936
X2.625Y-2.9951
T8
X4.9734Y-2.6719
X4.9734Y-2.9063
X4.9734Y-3.1406
X4.9734Y-3.375
X4.9734Y-3.6094
X4.9734Y-3.8438
X4.9734Y-3.9609
X4.9734Y-4.0781
X4.9734Y-4.3125
X4.9734Y-4.5469
X4.9734Y-4.7813
X4.9734Y-5.0156
X4.9734Y-5.25
X5.0672Y-2.5547
X5.0672Y-2.7891
X5.0672Y-3.0234
X5.0672Y-3.2578
X5.0672Y-3.4922
X5.0672Y-3.7266
X5.0672Y-4.1953
X5.0672Y-4.4297
X5.0672Y-4.6641
X5.0672Y-4.8984
X5.0672Y-5.1328
X5.2734Y-2.6719
X5.2734Y-2.9063
X5.2734Y-3.1406
X5.2734Y-3.375
X5.2734Y-3.6094
X5.2734Y-3.8438
X5.2734Y-3.9609
X5.2734Y-4.0781
X5.2734Y-4.3125
X5.2734Y-4.5469
X5.2734Y-4.7813
X5.2734Y-5.0156
X5.2734Y-5.25
X5.3438Y-5.3906
X5.3438Y-5.6906
X5.3672Y-2.5547
X5.3672Y-2.7891
X5.3672Y-3.0234
X5.3672Y-3.2578
X5.3672Y-3.4922
X5.3672Y-3.7266
X5.3672Y-4.1953
X5.3672Y-4.4297
X5.3672Y-4.6641
X5.3672Y-4.8984
X5.3672Y-5.1328
X5.4609Y-5.2969
X5.4609Y-5.5969
X5.5781Y-5.3906
X5.5781Y-5.6906
X5.6719Y-3.4922
X5.6719Y-3.5906
X5.6719Y-3.7031
X5.6719Y-3.8016
X5.6953Y-5.2969
X5.6953Y-5.5969
X5.8125Y-5.3906
X5.8125Y-5.6906
X5.8594Y-3.5391
X5.8594Y-3.7312
X5.9297Y-5.2969
X5.9297Y-5.5969
X6.0703Y-5.2969
X6.0703Y-5.5969
X6.0938Y-2.7188
X6.0938Y-2.8188
X6.0938Y-2.9188
X6.0938Y-3.0188
X6.0938Y-3.1188
X6.0938Y-3.2188
X6.0938Y-3.3188
X6.0938Y-3.4188
X6.0938Y-3.5188
X6.0938Y-3.6188
X6.0938Y-3.7188
X6.0938Y-3.8188
X6.0938Y-3.9188
X6.0938Y-4.0188
X6.0984Y-4.6641
X6.0984Y-4.7813
X6.1313Y-4.9922
X6.1313Y-5.1094
X6.1875Y-5.3906
X6.1875Y-5.6906
X6.3047Y-5.2969
X6.3047Y-5.5969
X6.3281Y-4.9922
X6.3281Y-5.1094
X6.3938Y-2.7188
X6.3938Y-2.8188
X6.3938Y-2.9188
X6.3938Y-3.0188
X6.3938Y-3.1188
X6.3938Y-3.2188
X6.3938Y-3.3188
X6.3938Y-3.4188
X6.3938Y-3.5188
X6.3938Y-3.6188
X6.3938Y-3.7188
X6.3938Y-3.8188
X6.3938Y-3.9188
X6.3938Y-4.0188
X6.3984Y-4.6641
X6.3984Y-4.7813
X6.4219Y-5.3906
X6.4219Y-5.6906
X6.5391Y-5.2969
X6.5391Y-5.5969
X6.6328Y-2.5547
X6.6328Y-2.7891
X6.6328Y-3.0234
X6.6328Y-3.2578
X6.6328Y-3.4922
X6.6328Y-3.7266
X6.6328Y-3.9609
X6.6328Y-4.1953
X6.6328Y-4.4297
X6.6328Y-4.6641
X6.6328Y-4.8984
X6.6328Y-5.1328
X6.6563Y-5.3906
X6.6563Y-5.6906
X6.7266Y-2.6719
X6.7266Y-2.9063
X6.7266Y-3.1406
X6.7266Y-3.375
X6.7266Y-3.6094
X6.7266Y-3.8438
X6.7266Y-4.0781
X6.7266Y-4.3125
X6.7266Y-4.5469
X6.7266Y-4.7813
X6.7266Y-5.0156
X6.7266Y-5.25
X6.9328Y-2.5547
X6.9328Y-2.7891
X6.9328Y-3.0234
X6.9328Y-3.2578
X6.9328Y-3.4922
X6.9328Y-3.7266
X6.9328Y-3.9609
X6.9328Y-4.1953
X6.9328Y-4.4297
X6.9328Y-4.6641
X6.9328Y-4.8984
X6.9328Y-5.1328
X7.0266Y-2.6719
X7.0266Y-2.9063
X7.0266Y-3.1406
X7.0266Y-3.375
X7.0266Y-3.6094
X7.0266Y-3.8438
X7.0266Y-4.0781
X7.0266Y-4.3125
X7.0266Y-4.5469
X7.0266Y-4.7813
X7.0266Y-5.0156
X7.0266Y-5.25
T9
X5.7188Y-2.5078
X5.8188Y-2.5078
X6.1813Y-2.5078
X6.2813Y-2.5078
T10
X5.6719Y-3.1578
X5.6719Y-3.2578
X5.7719Y-3.1578
X5.7719Y-3.2578
X5.8719Y-3.1578
X5.8719Y-3.2578
T11
X5.6719Y-2.7207
X5.6719Y-2.9766
X5.6719Y-3.9628
X5.6719Y-4.2188
X5.849Y-2.7207
X5.849Y-2.9766
X5.849Y-3.9628
X5.849Y-4.2188
T12
X0.5531Y-2.6809
X0.5532Y-3.4309
X0.5532Y-4.1809
X0.5532Y-4.9309
X0.5532Y-5.6809
X0.75Y-2.7635
X0.75Y-3.5135
X0.75Y-4.2635
X0.75Y-5.0135
X0.75Y-5.7635
X1.3032Y-2.6809
X1.3032Y-3.4309
X1.3032Y-4.1809
X1.3032Y-4.9309
X1.3032Y-5.6809
X1.5Y-2.7635
X1.5Y-3.5135
X1.5Y-4.2635
X1.5Y-5.0135
X1.5Y-5.7635
X2.0532Y-2.6809
X2.0532Y-3.4309
X2.0532Y-4.1809
X2.0532Y-4.9309
X2.0532Y-5.6809
X2.25Y-2.7635
X2.25Y-3.5135
X2.25Y-4.2635
X2.25Y-5.0135
X2.25Y-5.7635
X2.8032Y-2.6809
X2.8032Y-3.4309
X2.8032Y-4.1809
X2.8032Y-4.9309
X2.8032Y-5.6809
X3.0Y-2.7635
X3.0Y-3.5135
X3.0Y-4.2635
X3.0Y-5.0135
X3.0Y-5.7635
X3.5532Y-2.6809
X3.5532Y-3.4309
X3.5532Y-4.1809
X3.5532Y-4.9309
X3.5532Y-5.6809
X3.75Y-2.7635
X3.75Y-3.5135
X3.75Y-4.2635
X3.75Y-5.0135
X3.75Y-5.7635
X4.3032Y-2.6809
X4.3032Y-3.4309
X4.3032Y-4.1809
X4.3032Y-4.9309
X4.3032Y-5.6809
X4.5Y-2.7635
X4.5Y-3.5135
X4.5Y-4.2635
X4.5Y-5.0135
X4.5Y-5.7635
X7.3032Y-2.6809
X7.3032Y-3.4309
X7.3032Y-4.1809
X7.3032Y-4.9309
X7.3032Y-5.6809
X7.5Y-2.7635
X7.5Y-3.5135
X7.5Y-4.2635
X7.5Y-5.0135
X7.5Y-5.7635
X8.0532Y-2.6809
X8.0532Y-3.4309
X8.0532Y-4.1809
X8.0532Y-4.9309
X8.0532Y-5.6809
X8.25Y-2.7635
X8.25Y-3.5135
X8.25Y-4.2635
X8.25Y-5.0135
X8.25Y-5.7635
X8.8032Y-2.6809
X8.8032Y-3.4309
X8.8032Y-4.1809
X8.8032Y-4.9309
X8.8032Y-5.6809
X9.0Y-2.7635
X9.0Y-3.5135
X9.0Y-4.2635
X9.0Y-5.0135
X9.0Y-5.7635
X9.5532Y-2.6809
X9.5532Y-3.4309
X9.5532Y-4.1809
X9.5532Y-4.9309
X9.5532Y-5.6809
X9.75Y-2.7635
X9.75Y-3.5135
X9.75Y-4.2635
X9.75Y-5.0135
X9.75Y-5.7635
X10.3032Y-2.6809
X10.3032Y-3.4309
X10.3032Y-4.1809
X10.3032Y-4.9309
X10.3032Y-5.6809
X10.5Y-2.7635
X10.5Y-3.5135
X10.5Y-4.2635
X10.5Y-5.0135
X10.5Y-5.7635
X11.0532Y-2.6809
X11.0532Y-3.4309
X11.0532Y-4.1809
X11.0532Y-4.9309
X11.0532Y-5.6809
X11.25Y-2.7635
X11.25Y-3.5135
X11.25Y-4.2635
X11.25Y-5.0135
X11.25Y-5.7635
T13
X0.6Y-2.4312
X0.6Y-3.1813
X0.6Y-3.9313
X0.6Y-4.6813
X0.6Y-5.4313
X0.6516Y-2.3738
X0.6516Y-3.1238
X0.6516Y-3.8738
X0.6516Y-4.6238
X0.6516Y-5.3738
X0.8484Y-2.3541
X0.8484Y-3.1041
X0.8484Y-3.8541
X0.8484Y-4.6041
X0.8484Y-5.3541
X0.85Y-2.3312
X0.85Y-3.0813
X0.85Y-3.8313
X0.85Y-4.5813
X0.85Y-5.3313
X1.35Y-2.4313
X1.35Y-3.1813
X1.35Y-3.9313
X1.35Y-4.6813
X1.35Y-5.4313
X1.4Y-3.4813
X1.4016Y-2.3738
X1.4016Y-3.1238
X1.4016Y-3.4584
X1.4016Y-3.8738
X1.4016Y-4.6238
X1.4016Y-5.3738
X1.5984Y-2.3541
X1.5984Y-3.1041
X1.5984Y-3.4387
X1.5984Y-3.8541
X1.5984Y-4.6041
X1.5984Y-5.3541
X1.6Y-2.3313
X1.6Y-3.0813
X1.6Y-3.8313
X1.6Y-4.5813
X1.6Y-5.3313
X1.65Y-3.3813
X2.1Y-2.4313
X2.1Y-3.1813
X2.1Y-3.9313
X2.1Y-4.6813
X2.1Y-5.4313
X2.1516Y-2.3738
X2.1516Y-3.1238
X2.1516Y-3.8738
X2.1516Y-4.6238
X2.1516Y-5.3738
X2.3484Y-2.3541
X2.3484Y-3.1041
X2.3484Y-3.8541
X2.3484Y-4.6041
X2.3484Y-5.3541
X2.35Y-2.3313
X2.35Y-3.0813
X2.35Y-3.8313
X2.35Y-4.5813
X2.35Y-5.3313
X2.85Y-2.4313
X2.85Y-3.1813
X2.85Y-3.9313
X2.85Y-4.6813
X2.85Y-5.4313
X2.9016Y-2.3738
X2.9016Y-3.1238
X2.9016Y-3.8738
X2.9016Y-4.6238
X2.9016Y-5.3738
X3.0984Y-2.3541
X3.0984Y-3.1041
X3.0984Y-3.8541
X3.0984Y-4.6041
X3.0984Y-5.3541
X3.1Y-2.3313
X3.1Y-3.0813
X3.1Y-3.8313
X3.1Y-4.5813
X3.1Y-5.3313
X3.6Y-2.4313
X3.6Y-3.1813
X3.6Y-3.9313
X3.6Y-4.6813
X3.6Y-5.4313
X3.6516Y-2.3738
X3.6516Y-3.1238
X3.6516Y-3.8738
X3.6516Y-4.6238
X3.6516Y-5.3738
X3.8484Y-2.3541
X3.8484Y-3.1041
X3.8484Y-3.8541
X3.8484Y-4.6041
X3.8484Y-5.3541
X3.85Y-2.3313
X3.85Y-3.0813
X3.85Y-3.8313
X3.85Y-4.5813
X3.85Y-5.3313
X4.35Y-2.4313
X4.35Y-3.1813
X4.35Y-3.9313
X4.35Y-4.6813
X4.35Y-5.4313
X4.4016Y-2.3738
X4.4016Y-3.1238
X4.4016Y-3.8738
X4.4016Y-4.6238
X4.4016Y-5.3738
X4.5984Y-2.3541
X4.5984Y-3.1041
X4.5984Y-3.8541
X4.5984Y-4.6041
X4.5984Y-5.3541
X4.6Y-2.3313
X4.6Y-3.0813
X4.6Y-3.8313
X4.6Y-4.5813
X4.6Y-5.3313
X7.35Y-2.4313
X7.35Y-3.1813
X7.35Y-3.9313
X7.35Y-4.6813
X7.35Y-5.4313
X7.4016Y-2.3738
X7.4016Y-3.1238
X7.4016Y-3.8738
X7.4016Y-4.6238
X7.4016Y-5.3738
X7.5984Y-2.3541
X7.5984Y-3.1041
X7.5984Y-3.8541
X7.5984Y-4.6041
X7.5984Y-5.3541
X7.6Y-2.3313
X7.6Y-3.0813
X7.6Y-3.8313
X7.6Y-4.5813
X7.6Y-5.3313
X8.1Y-2.4313
X8.1Y-3.1813
X8.1Y-3.9313
X8.1Y-4.6813
X8.1Y-5.4313
X8.1516Y-2.3738
X8.1516Y-3.1238
X8.1516Y-3.8738
X8.1516Y-4.6238
X8.1516Y-5.3738
X8.3484Y-2.3541
X8.3484Y-3.1041
X8.3484Y-3.8541
X8.3484Y-4.6041
X8.3484Y-5.3541
X8.35Y-2.3313
X8.35Y-3.0813
X8.35Y-3.8313
X8.35Y-4.5813
X8.35Y-5.3313
X8.85Y-2.4313
X8.85Y-3.1813
X8.85Y-3.9313
X8.85Y-4.6813
X8.85Y-5.4313
X8.9016Y-2.3738
X8.9016Y-3.1238
X8.9016Y-3.8738
X8.9016Y-4.6238
X8.9016Y-5.3738
X9.0984Y-2.3541
X9.0984Y-3.1041
X9.0984Y-3.8541
X9.0984Y-4.6041
X9.0984Y-5.3541
X9.1Y-2.3313
X9.1Y-3.0813
X9.1Y-3.8313
X9.1Y-4.5813
X9.1Y-5.3313
X9.6Y-2.4313
X9.6Y-3.1813
X9.6Y-3.9313
X9.6Y-4.6813
X9.6Y-5.4313
X9.6516Y-2.3738
X9.6516Y-3.1238
X9.6516Y-3.8738
X9.6516Y-4.6238
X9.6516Y-5.3738
X9.8484Y-2.3541
X9.8484Y-3.1041
X9.8484Y-3.8541
X9.8484Y-4.6041
X9.8484Y-5.3541
X9.85Y-2.3313
X9.85Y-3.0813
X9.85Y-3.8313
X9.85Y-4.5813
X9.85Y-5.3313
X10.35Y-2.4313
X10.35Y-3.1813
X10.35Y-3.9313
X10.35Y-4.6813
X10.35Y-5.4313
X10.4016Y-2.3738
X10.4016Y-3.1238
X10.4016Y-3.8738
X10.4016Y-4.6238
X10.4016Y-5.3738
X10.5984Y-2.3541
X10.5984Y-3.1041
X10.5984Y-3.8541
X10.5984Y-4.6041
X10.5984Y-5.3541
X10.6Y-2.3313
X10.6Y-3.0813
X10.6Y-3.8313
X10.6Y-4.5813
X10.6Y-5.3313
X11.1Y-2.4313
X11.1Y-3.1813
X11.1Y-3.9313
X11.1Y-4.6813
X11.1Y-5.4313
X11.1516Y-2.3738
X11.1516Y-3.1238
X11.1516Y-3.8738
X11.1516Y-4.6238
X11.1516Y-5.3738
X11.3484Y-2.3541
X11.3484Y-3.1041
X11.3484Y-3.8541
X11.3484Y-4.6041
X11.3484Y-5.3541
X11.35Y-2.3313
X11.35Y-3.0813
X11.35Y-3.8313
X11.35Y-4.5813
X11.35Y-5.3313
T14
X3.975Y-5.4313
X4.225Y-5.3313
X7.725Y-5.4313
X7.975Y-5.3313
T1
G00X0.9528Y-2.2748
M15
G01X0.9528Y-2.2295
M16
G05
G00X1.2598Y-2.2748
M15
G01X1.2598Y-2.2295
M16
G05
T4
G00X0.9361Y-2.2087
M15
G01X0.9361Y-2.2402
M16
G05
G00X0.9361Y-2.328
M15
G01X0.9361Y-2.387
M16
G05
G00X1.2767Y-2.2087
M15
G01X1.2767Y-2.2402
M16
G05
G00X1.2767Y-2.328
M15
G01X1.2767Y-2.387
M16
G05
T0
M30
