%TF.GenerationSoftware,KiCad,Pcbnew,(6.0.0-0)*%
%TF.CreationDate,2022-01-30T10:49:44+01:00*%
%TF.ProjectId,brutal60-split,62727574-616c-4363-902d-73706c69742e,rev?*%
%TF.SameCoordinates,Original*%
%TF.FileFunction,Profile,NP*%
%FSLAX46Y46*%
G04 Gerber Fmt 4.6, Leading zero omitted, Abs format (unit mm)*
G04 Created by KiCad (PCBNEW (6.0.0-0)) date 2022-01-30 10:49:44*
%MOMM*%
%LPD*%
G01*
G04 APERTURE LIST*
%TA.AperFunction,Profile*%
%ADD10C,0.200000*%
%TD*%
%TA.AperFunction,Profile*%
%ADD11C,0.100000*%
%TD*%
G04 APERTURE END LIST*
D10*
X203258123Y-41229127D02*
X203258123Y-136479252D01*
X131073633Y-136479252D02*
X90922459Y-136479251D01*
X88922459Y-134479252D02*
X88922459Y-43229127D01*
X90922459Y-41229127D02*
G75*
G03*
X88922459Y-43229127I0J-2000000D01*
G01*
X137621843Y-39071175D02*
G75*
G03*
X137621843Y-39071175I-1099999J0D01*
G01*
X137721844Y-138571175D02*
G75*
G03*
X137721844Y-138571175I-1100000J0D01*
G01*
X88922459Y-134479252D02*
G75*
G03*
X90922460Y-136479251I2000000J1D01*
G01*
X133073633Y-138479252D02*
G75*
G03*
X131073632Y-136479251I-2000001J0D01*
G01*
X133073633Y-138579252D02*
X133073633Y-138479252D01*
X133073633Y-138579252D02*
G75*
G03*
X140073633Y-138579252I3500000J0D01*
G01*
X140073633Y-138479252D02*
X140073633Y-138579252D01*
X142073633Y-136479252D02*
G75*
G03*
X140073633Y-138479252I0J-2000000D01*
G01*
X203258123Y-136479252D02*
X142073633Y-136479252D01*
X142051317Y-41229127D02*
X203258123Y-41229127D01*
X140073633Y-39229251D02*
G75*
G03*
X142051317Y-41229126I1999999J0D01*
G01*
X140073633Y-39129252D02*
X140073633Y-39229251D01*
X140073633Y-39129252D02*
G75*
G03*
X133073633Y-39129252I-3500000J0D01*
G01*
X133073633Y-39229252D02*
X133073633Y-39129252D01*
X131095948Y-41229127D02*
G75*
G03*
X133073633Y-39229250I-22316J1999876D01*
G01*
X90922459Y-41229127D02*
X131095948Y-41229127D01*
D11*
X105609041Y-43577248D02*
X91321541Y-43577248D01*
X91321541Y-43577248D02*
X91321541Y-57864748D01*
X143709041Y-62627248D02*
X129421541Y-62627248D01*
X110371541Y-76914748D02*
X124659041Y-76914748D01*
X181809041Y-43577248D02*
X181809041Y-57864748D01*
X181809041Y-57864748D02*
X167521541Y-57864748D01*
X91321541Y-115014748D02*
X105609041Y-115014748D01*
X105609041Y-100727248D02*
X91321541Y-100727248D01*
X148471541Y-57864748D02*
X148471541Y-43577248D01*
X148471541Y-43577248D02*
X162759041Y-43577248D01*
X143709041Y-43577248D02*
X129421541Y-43577248D01*
X129421541Y-43577248D02*
X129421541Y-57864748D01*
X129421541Y-57864748D02*
X143709041Y-57864748D01*
X143709041Y-57864748D02*
X143709041Y-43577248D01*
X124659041Y-43577248D02*
X110371541Y-43577248D01*
X110371541Y-43577248D02*
X110371541Y-57864748D01*
X167521541Y-57864748D02*
X167521541Y-43577248D01*
X167521541Y-43577248D02*
X181809041Y-43577248D01*
X91321541Y-57864748D02*
X105609041Y-57864748D01*
X91321541Y-76914748D02*
X105609041Y-76914748D01*
X110371541Y-57864748D02*
X124659041Y-57864748D01*
X124659041Y-57864748D02*
X124659041Y-43577248D01*
X105609041Y-57864748D02*
X105609041Y-43577248D01*
X200859041Y-134064748D02*
X200859041Y-119777248D01*
X169902677Y-119777356D02*
X167521425Y-119777356D01*
X174665181Y-118586730D02*
X174665181Y-119777356D01*
X198477701Y-118586730D02*
X198477701Y-119777356D01*
X169902677Y-119777356D02*
X169902677Y-118586730D01*
X200859041Y-119777248D02*
X198477701Y-119777356D01*
X193715197Y-119777356D02*
X193715197Y-118586730D01*
X200859041Y-62627248D02*
X186571541Y-62627248D01*
X181809041Y-62627248D02*
X181809041Y-76914748D01*
X186571541Y-76914748D02*
X200859041Y-76914748D01*
X148471541Y-62627248D02*
X162759041Y-62627248D01*
X186571541Y-81677248D02*
X186571541Y-95964748D01*
X129421541Y-62627248D02*
X129421541Y-76914748D01*
X200859041Y-76914748D02*
X200859041Y-62627248D01*
X91321541Y-62627248D02*
X91321541Y-76914748D01*
X91321541Y-95964836D02*
X105609041Y-95964836D01*
X129421541Y-95964748D02*
X143709041Y-95964748D01*
X124659041Y-95964748D02*
X124659041Y-81677248D01*
X200859041Y-43577248D02*
X186571541Y-43577248D01*
X110371541Y-81677248D02*
X110371541Y-95964748D01*
X105609041Y-95964748D02*
X105609041Y-81677248D01*
X105609041Y-76914748D02*
X105609041Y-62627248D01*
X167521541Y-100727248D02*
X181809041Y-100727248D01*
X129421541Y-134064748D02*
X143709041Y-134064748D01*
X110371541Y-115014748D02*
X124659041Y-115014748D01*
X181809041Y-100727248D02*
X181809041Y-115014748D01*
X200859041Y-115014748D02*
X200859041Y-100727248D01*
X162759041Y-100727248D02*
X162759041Y-115014748D01*
X129421541Y-81677248D02*
X129421541Y-95964748D01*
X129421541Y-100727248D02*
X129421541Y-115014748D01*
X181809041Y-95964748D02*
X167521541Y-95964748D01*
X186571541Y-100727248D02*
X186571541Y-115014748D01*
X200859041Y-95964748D02*
X200859041Y-81677248D01*
X129421541Y-115014748D02*
X143709041Y-115014748D01*
X193715197Y-119777356D02*
X174665181Y-119777356D01*
X162759041Y-115014748D02*
X148471541Y-115014748D01*
X110371541Y-119777248D02*
X110371541Y-134064748D01*
X143709041Y-115014748D02*
X143709041Y-100727248D01*
X143709041Y-134064748D02*
X143709041Y-119777248D01*
X124659041Y-115014748D02*
X124659041Y-100727248D01*
X148471541Y-134064748D02*
X148471541Y-119777248D01*
X167521541Y-115014748D02*
X167521541Y-100727248D01*
X162759041Y-134064748D02*
X148471541Y-134064748D01*
X181809041Y-115014748D02*
X167521541Y-115014748D01*
X110371541Y-134064748D02*
X124659041Y-134064748D01*
X148471541Y-100727248D02*
X162759041Y-100727248D01*
X124659041Y-134064748D02*
X124659041Y-119777248D01*
X148471541Y-115014748D02*
X148471541Y-100727248D01*
X148471541Y-95964748D02*
X148471541Y-81677248D01*
X162759041Y-81677248D02*
X162759041Y-95964748D01*
X148471541Y-81677248D02*
X162759041Y-81677248D01*
X124659041Y-100727248D02*
X110371541Y-100727248D01*
X162759041Y-57864748D02*
X148471541Y-57864748D01*
X200859041Y-100727248D02*
X186571541Y-100727248D01*
X143709041Y-100727248D02*
X129421541Y-100727248D01*
X181809041Y-81677248D02*
X181809041Y-95964748D01*
X124659041Y-81677248D02*
X110371541Y-81677248D01*
X162759041Y-43577248D02*
X162759041Y-57864748D01*
X167521541Y-134064748D02*
X167521541Y-119777248D01*
X186571541Y-43577248D02*
X186571541Y-57864748D01*
X186571541Y-57864748D02*
X200859041Y-57864748D01*
X167521541Y-134064748D02*
X200859041Y-134064748D01*
X186571541Y-62627248D02*
X186571541Y-76914748D01*
X167521541Y-62627248D02*
X181809041Y-62627248D01*
X162759041Y-76914748D02*
X148471541Y-76914748D01*
X105609041Y-134064748D02*
X105609041Y-119777248D01*
X162759041Y-119777248D02*
X162759041Y-134064748D01*
X193715197Y-118586730D02*
X198477701Y-118586730D01*
X186571541Y-115014748D02*
X200859041Y-115014748D01*
X110371541Y-100727248D02*
X110371541Y-115014748D01*
X129421541Y-119777248D02*
X129421541Y-134064748D01*
X124659041Y-119777248D02*
X110371541Y-119777248D01*
X143709041Y-119777248D02*
X129421541Y-119777248D01*
X169902677Y-118586730D02*
X174665181Y-118586730D01*
X91321541Y-119777248D02*
X91321541Y-134064748D01*
X105609041Y-119777248D02*
X91321541Y-119777248D01*
X91321541Y-134064748D02*
X105609041Y-134064748D01*
X105609041Y-62627248D02*
X91321541Y-62627248D01*
X91321541Y-81677248D02*
X91321541Y-95964748D01*
X105609041Y-81677248D02*
X91321541Y-81677248D01*
X200859041Y-57864748D02*
X200859041Y-43577248D01*
X162759041Y-62627248D02*
X162759041Y-76914748D01*
X167521541Y-81677248D02*
X181809041Y-81677248D01*
X143709041Y-81677248D02*
X129421541Y-81677248D01*
X148471541Y-76914748D02*
X148471541Y-62627248D01*
X167521541Y-95964748D02*
X167521541Y-81677248D01*
X200859041Y-81677248D02*
X186571541Y-81677248D01*
X143709041Y-95964748D02*
X143709041Y-81677248D01*
X186571541Y-95964748D02*
X200859041Y-95964748D01*
X162759041Y-95964748D02*
X148471541Y-95964748D01*
X167521541Y-76914748D02*
X167521541Y-62627248D01*
X124659041Y-62627248D02*
X110371541Y-62627248D01*
X110371541Y-62627248D02*
X110371541Y-76914748D01*
X105609041Y-115014748D02*
X105609041Y-100727248D01*
X91321541Y-100727248D02*
X91321541Y-115014748D01*
X110371541Y-95964748D02*
X124659041Y-95964748D01*
X143709041Y-76914748D02*
X143709041Y-62627248D01*
X129421541Y-76914748D02*
X143709041Y-76914748D01*
X124659041Y-76914748D02*
X124659041Y-62627248D01*
X181809041Y-76914748D02*
X167521541Y-76914748D01*
X148471541Y-119777248D02*
X162759041Y-119777248D01*
M02*
